<?xml version="1.0" standalone="no"?>
<!DOCTYPE svg PUBLIC "-//W3C//DTD SVG 1.1//EN" "http://www.w3.org/Graphics/SVG/1.1/DTD/svg11.dtd" >
<svg xmlns="http://www.w3.org/2000/svg">
<metadata></metadata>
<defs>
<font id="geometriauploaded_file" horiz-adv-x="1271" >
<font-face units-per-em="2048" ascent="1589" descent="-459" />
<missing-glyph horiz-adv-x="538" />
<glyph unicode="&#xfb01;" horiz-adv-x="1249" d="M53 852v141h195v158q0 139 73.5 219t217.5 80q129 0 213 -39v-147q-90 41 -172 41q-168 0 -168 -183v-129h641v-993h-162v852h-479v-852h-164v852h-195zM862 1329q0 47 32 79t77 32q47 0 79.5 -32t32.5 -79t-32.5 -78.5t-79.5 -31.5t-78 31.5t-31 78.5z" />
<glyph unicode="&#xfb02;" horiz-adv-x="1323" d="M53 852v141h195v158q0 139 73.5 219t217.5 80q129 0 213 -39v-147q-90 41 -172 41q-168 0 -168 -183v-129h479v441h162v-1170q0 -139 125 -139q55 0 94 25v-146q-51 -29 -149.5 -29t-165 57.5t-66.5 190.5v629h-479v-852h-164v852h-195z" />
<glyph unicode="&#xfb03;" horiz-adv-x="1878" d="M53 852v141h195v158q0 139 73.5 219t217.5 80q129 0 213 -39v-147q-90 41 -172 41q-168 0 -168 -183v-129h479v158q0 139 73.5 219t217.5 80q129 0 213 -39v-147q-90 41 -172 41q-168 0 -168 -183v-129h639v-993h-162v852h-477v-852h-164v852h-479v-852h-164v852h-195z M1503 1329q0 47 32 79t79 32t78.5 -32t31.5 -79t-31.5 -79.5t-78.5 -32.5t-79 32.5t-32 79.5z" />
<glyph unicode="&#xfb04;" horiz-adv-x="1964" d="M53 852v141h195v158q0 139 73.5 219t217.5 80q129 0 213 -39v-147q-90 41 -172 41q-168 0 -168 -183v-129h479v158q0 139 73.5 219t217.5 80q129 0 213 -39v-147q-90 41 -172 41q-168 0 -168 -183v-129h477v441h162v-1170q0 -139 127 -139q53 0 92 25v-146 q-51 -29 -148 -29q-98 0 -165.5 57.5t-67.5 190.5v629h-477v-852h-164v852h-479v-852h-164v852h-195z" />
<glyph horiz-adv-x="0" />
<glyph unicode="&#xd;" horiz-adv-x="681" />
<glyph unicode=" "  horiz-adv-x="538" />
<glyph unicode="&#x09;" horiz-adv-x="538" />
<glyph unicode="&#xa0;" horiz-adv-x="538" />
<glyph unicode="!" horiz-adv-x="593" d="M184 100q0 47 33 81t80 34t81 -34t34 -81t-34 -79.5t-81 -32.5t-80 32.5t-33 79.5zM193 1434h210l-30 -990h-150z" />
<glyph unicode="&#x22;" horiz-adv-x="741" d="M109 905v529h143v-529h-143zM492 905v529h143v-529h-143z" />
<glyph unicode="#" horiz-adv-x="1499" d="M72 383l22 133h293l64 399h-295l22 134h293l64 385h135l-62 -385h389l62 385h135l-61 -385h297l-23 -134h-295l-63 -399h297l-23 -133h-295l-61 -383h-136l62 383h-391l-60 -383h-135l60 383h-295zM524 516h389l64 399h-391z" />
<glyph unicode="$" horiz-adv-x="1286" d="M97 127v184q80 -72 225 -126t297 -54q164 0 270.5 69.5t106.5 188.5q0 51 -21.5 91t-49.5 66.5t-87 52.5t-104 40t-134 39q-96 27 -152 45t-127 53t-107.5 73t-63.5 98.5t-27 135.5q0 150 110.5 251.5t311.5 119.5v211h166v-211q205 -18 363 -115v-170q-211 133 -445 134 q-168 0 -252 -63.5t-84 -160.5q0 -35 9.5 -62.5t36 -51t45 -39t66.5 -32.5t70.5 -24.5t86 -26t84.5 -24.5q86 -27 140 -46t124.5 -56t111.5 -78t70 -105.5t29 -142.5q0 -176 -128 -284.5t-327 -126.5v-209h-166v209q-276 20 -448 147z" />
<glyph unicode="%" horiz-adv-x="1689" d="M94 1114.5q0 145.5 97.5 244.5t244.5 99q152 0 250 -99t98 -244.5t-98 -246t-250 -100.5q-147 0 -244.5 100.5t-97.5 246zM223 1114q0 -98 59.5 -162.5t153.5 -64.5q96 0 156.5 64.5t60.5 162.5q0 94 -60.5 158.5t-156.5 64.5q-94 0 -153.5 -64.5t-59.5 -158.5zM356 0 l842 1434h137l-841 -1434h-138zM905 319q0 145 98.5 246t245.5 101q150 0 248 -100.5t98 -246t-98 -245t-248 -99.5q-147 0 -245.5 100.5t-98.5 243.5zM1034 319.5q0 -96.5 60.5 -160t154.5 -63.5t154.5 63.5t60.5 160t-60.5 162t-154.5 65.5t-154.5 -65.5t-60.5 -162z" />
<glyph unicode="&#x26;" horiz-adv-x="1470" d="M94 430q0 154 83 258.5t185 151.5q-96 115 -96 258q0 156 114 258t286 102q206 1 358 -108v-166q-158 129 -336 129q-119 0 -187.5 -59.5t-68.5 -159.5q0 -76 38 -135.5t108 -127.5l475 -462q109 166 116 401h162q-12 -297 -166 -512l267 -258h-215l-152 145 q-190 -170 -451 -170q-219 0 -369.5 120t-150.5 335zM260 432q0 -143 101.5 -227t261.5 -84q197 0 333 131l-491 479q-82 -29 -143.5 -107.5t-61.5 -191.5z" />
<glyph unicode="'" horiz-adv-x="358" d="M109 905v529h143v-529h-143z" />
<glyph unicode="(" horiz-adv-x="747" d="M188.5 512q-0.5 543 303.5 934h172q-319 -412 -319 -934t319 -934h-172q-303 391 -303.5 934z" />
<glyph unicode=")" horiz-adv-x="747" d="M84 -422q319 416 319 934t-319 934h170q305 -389 305 -934t-305 -934h-170z" />
<glyph unicode="*" horiz-adv-x="870" d="M86 930l240 135l-240 133l61 105l236 -144l-6 275h121l-6 -275l235 144l59 -105l-241 -133l241 -135l-59 -103l-235 142l6 -275h-121l6 275l-236 -142z" />
<glyph unicode="+" d="M143 594v149h420v418h146v-418h421v-149h-421v-418h-146v418h-420z" />
<glyph unicode="," horiz-adv-x="491" d="M28 -311l164 533h189l-224 -533h-129z" />
<glyph unicode="-" horiz-adv-x="989" d="M205 483v150h579v-150h-579z" />
<glyph unicode="." horiz-adv-x="489" d="M131 100q0 47 33 81t82 34q47 0 79.5 -34t32.5 -81t-32.5 -79.5t-79.5 -32.5q-49 0 -82 32.5t-33 79.5z" />
<glyph unicode="/" horiz-adv-x="1050" d="M4 -287l862 1909h168l-862 -1909h-168z" />
<glyph unicode="0" horiz-adv-x="1449" d="M133 716.5q0 313.5 165 527.5t427 214q264 0 427 -214t163 -527.5t-163 -527.5t-427 -214q-262 0 -427 214t-165 527.5zM301 717q0 -250 119 -418t305 -168t305 168t119 418t-119 418t-305 168t-305 -168t-119 -418z" />
<glyph unicode="1" horiz-adv-x="768" d="M66 1073v160l337 201h148v-1434h-164v1253z" />
<glyph unicode="2" horiz-adv-x="1177" d="M88 0v123l477 452q158 150 221.5 243t63.5 210q0 125 -87 200t-231 75q-221 0 -409 -189v184q178 160 426 160q199 0 334 -113.5t135 -295.5q0 -145 -72 -261t-246 -282l-371 -354h740v-152h-981z" />
<glyph unicode="3" horiz-adv-x="1171" d="M84 80v172q172 -121 410 -121q162 0 277.5 87t115.5 239q0 143 -102.5 229t-276.5 86q-90 0 -164 -22v114l432 418h-635v152h858v-125l-415 -406q186 -6 327.5 -129t141.5 -317q0 -215 -158 -348.5t-391 -133.5q-254 0 -420 105z" />
<glyph unicode="4" horiz-adv-x="1298" d="M72 391v131l766 912h159v-895h236v-148h-236v-391h-161v391h-764zM262 539h574v675z" />
<glyph unicode="5" horiz-adv-x="1220" d="M123 70v166q170 -104 393 -105q176 0 292 90t116 234q0 139 -108.5 229t-289.5 90q-176 0 -344 -59l94 719h715v-152h-590l-55 -393q92 25 219 24q227 0 377 -128t150 -330q0 -215 -164 -347.5t-408 -132.5q-233 0 -397 95z" />
<glyph unicode="6" horiz-adv-x="1312" d="M141 647q0 225 72 407.5t216 293t339 110.5q172 0 305 -88v-158q-133 90 -291 91q-121 0 -214 -49.5t-148 -134.5t-84 -186.5t-31 -213.5q55 92 161.5 146.5t248.5 54.5q195 0 329 -128t134 -329q0 -213 -141.5 -350.5t-350.5 -137.5q-254 0 -399.5 177.5t-145.5 494.5z M307 508q16 -178 111.5 -277.5t259.5 -99.5q143 0 239.5 93t96.5 236.5t-96.5 228.5t-243.5 85q-123 0 -227.5 -76.5t-139.5 -189.5z" />
<glyph unicode="7" horiz-adv-x="1136" d="M90 1282v152h953v-125l-662 -1309h-176l647 1282h-762z" />
<glyph unicode="8" horiz-adv-x="1320" d="M111 393q0 135 83 230.5t220 134.5q-106 43 -169 127t-63 196q0 166 135.5 271.5t342 105.5t342 -105.5t135.5 -271.5q0 -113 -63 -196.5t-167 -126.5q137 -37 218 -132.5t81 -232.5q0 -190 -156.5 -304t-390 -114t-391 114t-157.5 304zM279 401q0 -121 109.5 -202.5 t271 -81.5t271 82t109.5 202q0 125 -108.5 203t-272 78t-272 -78t-108.5 -203zM340 1067q0 -109 91 -177.5t228.5 -68.5t228.5 68.5t91 177.5q0 113 -91 182.5t-228.5 69.5t-228.5 -69.5t-91 -182.5z" />
<glyph unicode="9" horiz-adv-x="1312" d="M141 971q0 213 141 350t350 137q254 0 399.5 -177t145.5 -495q0 -225 -71.5 -407t-216 -293t-339.5 -111q-172 0 -305 88v158q133 -90 291 -90q121 0 214 49t148.5 134t84 186.5t30.5 214.5q-55 -92 -161.5 -146.5t-247.5 -54.5q-195 0 -329 128t-134 329zM305 972.5 q0 -143.5 96 -228.5t244 -85q123 0 227 77t139 190q-16 178 -111 277.5t-259 99.5q-143 0 -239.5 -93.5t-96.5 -237z" />
<glyph unicode=":" horiz-adv-x="489" d="M131 100q0 47 33 81t82 34q47 0 79.5 -34t32.5 -81t-32.5 -79.5t-79.5 -32.5q-49 0 -82 32.5t-33 79.5zM131 854q0 47 33 81t82 34q47 0 79.5 -34t32.5 -81t-32.5 -79.5t-79.5 -32.5q-49 0 -82 32.5t-33 79.5z" />
<glyph unicode=";" horiz-adv-x="503" d="M29 -311l164 532h188l-223 -532h-129zM166 854q0 47 32.5 81t82.5 34q47 0 79.5 -34t32.5 -81t-32.5 -80t-79.5 -33q-49 0 -82 33t-33 80z" />
<glyph unicode="&#x3c;" d="M143 586v153l987 420v-160l-815 -335l815 -334v-162z" />
<glyph unicode="=" d="M143 360v148h987v-148h-987zM143 827v148h987v-148h-987z" />
<glyph unicode="&#x3e;" d="M143 168v162l813 334l-813 335v160l987 -420v-153z" />
<glyph unicode="?" horiz-adv-x="978" d="M61 1182v153q156 115 379 115q186 0 316.5 -105.5t130.5 -281.5q0 -147 -109.5 -250.5t-267.5 -155.5v-213h-158v297q145 27 256 112t111 202q0 113 -85 180.5t-218 67.5q-178 0 -355 -121zM322 100q0 47 33.5 81t80.5 34t80 -34t33 -81t-33 -79.5t-80 -32.5t-80.5 32.5 t-33.5 79.5z" />
<glyph unicode="@" horiz-adv-x="1964" d="M98 563q0 379 259 637t628 258q375 0 629 -243.5t254 -598.5q0 -215 -96.5 -351t-255.5 -136q-195 0 -261 156q-41 -61 -128 -110.5t-197 -49.5q-178 0 -293 127t-115 309t115 309t291 127q104 0 183 -43t124 -100v115h156v-559q0 -211 159 -211q111 0 183.5 115.5 t72.5 303.5q0 324 -228 553.5t-593 229.5q-356 0 -590.5 -244t-234.5 -594q0 -352 234.5 -594.5t590.5 -242.5q225 0 428 108v-63q-192 -103 -428 -103q-371 0 -629 256t-258 639zM684 561q0 -125 82 -211t205 -86q82 0 152.5 44t111.5 112v282q-41 68 -111.5 112t-152.5 44 q-123 0 -205 -85t-82 -212z" />
<glyph unicode="A" horiz-adv-x="1546" d="M57 0l637 1442h158l637 -1442h-176l-174 387h-738l-170 -387h-174zM459 535h626l-313 698z" />
<glyph unicode="B" horiz-adv-x="1484" d="M199 0v1434h626q193 0 303.5 -92.5t110.5 -256.5q0 -113 -51 -191.5t-139 -111.5q141 -25 226 -125t85 -258q0 -180 -127 -289.5t-346 -109.5h-688zM365 152h491q156 0 241 69.5t85 200.5q0 129 -85 196.5t-241 67.5h-491v-534zM365 834h432q133 0 204.5 57t71.5 164 q0 111 -71.5 169t-204.5 58h-432v-448z" />
<glyph unicode="C" horiz-adv-x="1411" d="M139 717q0 322 211 531.5t529 209.5q231 0 399 -104v-170q-180 119 -397 119q-242 0 -407 -167t-165 -419q0 -254 166 -420t412 -166t422 139v-170q-174 -125 -430 -125q-315 0 -527.5 209t-212.5 533z" />
<glyph unicode="D" horiz-adv-x="1593" d="M199 0v1434h475q346 0 562 -199t216 -518.5t-216 -518t-562 -198.5h-475zM365 152h290q291 0 459 152.5t168 412.5t-168 412.5t-459 152.5h-290v-1130z" />
<glyph unicode="E" horiz-adv-x="1310" d="M199 0v1434h989v-152h-823v-438h673v-152h-673v-540h854v-152h-1020z" />
<glyph unicode="F" horiz-adv-x="1275" d="M199 0v1434h985v-152h-819v-457h661v-151h-661v-674h-166z" />
<glyph unicode="G" horiz-adv-x="1595" d="M139 717q0 322 211 531.5t529 209.5q266 0 452 -133v-168q-201 145 -442 146q-250 0 -415 -166t-165 -422q0 -258 164 -421t401 -163q252 0 396 143v549h164v-614q-90 -104 -237 -169t-323 -65q-313 0 -524 209t-211 533z" />
<glyph unicode="H" horiz-adv-x="1558" d="M199 0v1434h166v-590h831v590h166v-1434h-166v692h-831v-692h-166z" />
<glyph unicode="I" horiz-adv-x="581" d="M209 0v1434h166v-1434h-166z" />
<glyph unicode="J" horiz-adv-x="1038" d="M72 66v172q119 -106 299 -107q164 0 243.5 82t79.5 256v965h166v-994q0 -236 -123 -350.5t-336 -114.5q-203 0 -329 91z" />
<glyph unicode="K" horiz-adv-x="1361" d="M199 0v1434h166v-615l647 615h219l-696 -656l804 -778h-229l-745 719v-719h-166z" />
<glyph unicode="L" horiz-adv-x="1224" d="M199 0v1434h166v-1282h792v-152h-958z" />
<glyph unicode="M" horiz-adv-x="1736" d="M199 0v1434h163l508 -684l508 684h162v-1434h-164v1182l-454 -611h-101l-459 611v-1182h-163z" />
<glyph unicode="N" horiz-adv-x="1587" d="M199 0v1434h143l887 -1145v1145h162v-1434h-142l-889 1149v-1149h-161z" />
<glyph unicode="O" horiz-adv-x="1728" d="M139 716.5q0 317.5 207 529.5t516 212t517 -212t208 -529.5t-208 -529.5t-517 -212t-516 212t-207 529.5zM309 717q0 -250 160 -418t393 -168q236 0 395.5 168t159.5 418t-159.5 418t-395.5 168q-233 0 -393 -168t-160 -418z" />
<glyph unicode="P" horiz-adv-x="1359" d="M199 0v1434h604q217 0 340 -111t123 -291q0 -184 -123 -295.5t-340 -111.5h-438v-625h-166zM365 776h426q147 0 228 64.5t81 187.5t-81 188.5t-228 65.5h-426v-506z" />
<glyph unicode="Q" horiz-adv-x="1728" d="M139 716.5q0 317.5 207 529.5t516 212t517 -212t208 -529q0 -248 -131 -437.5t-348 -265.5q127 -127 258 -127q100 0 170 45v-157q-86 -43 -193 -43q-111 0 -210 63.5t-213 181.5q-18 -2 -58 -2q-309 0 -516 212t-207 529.5zM309 717q0 -250 160 -418t393 -168 q236 0 395.5 168t159.5 418t-159.5 418t-395.5 168q-233 0 -393 -168t-160 -418z" />
<glyph unicode="R" horiz-adv-x="1505" d="M199 0v1434h643q213 0 334.5 -108.5t121.5 -285.5q0 -150 -87 -253t-246 -134l460 -653h-196l-447 637h-417v-637h-166zM365 786h466q143 0 221 64.5t78 183.5t-77.5 183.5t-221.5 64.5h-466v-496z" />
<glyph unicode="S" horiz-adv-x="1286" d="M96 127v184q80 -72 225.5 -126t296.5 -54q164 0 270.5 69.5t106.5 188.5q0 51 -21.5 91t-49 66.5t-87 52.5t-104.5 40t-133 39q-96 27 -152.5 45t-127 53t-107.5 73t-63.5 98.5t-26.5 135.5q0 164 133 269.5t369 105.5q258 0 448 -119v-170q-211 133 -444 134 q-168 0 -252 -63.5t-84 -160.5q0 -35 9 -62.5t36 -51t45 -39t66.5 -32.5t71 -24.5t86 -26t83.5 -24.5q86 -27 140.5 -46t125 -56t111.5 -78t69.5 -105.5t28.5 -142.5q0 -195 -154.5 -305.5t-381.5 -110.5q-322 0 -533 152z" />
<glyph unicode="T" horiz-adv-x="1294" d="M72 1282v152h1151v-152h-494v-1282h-168v1282h-489z" />
<glyph unicode="U" horiz-adv-x="1529" d="M176 610v824h166v-828q0 -227 114.5 -351t307.5 -124q195 0 309.5 124t114.5 351v828h166v-824q0 -303 -164 -469t-426 -166t-425 166t-163 469z" />
<glyph unicode="V" horiz-adv-x="1546" d="M66 1434h184l524 -1213l524 1213h181l-629 -1442h-156z" />
<glyph unicode="W" horiz-adv-x="2160" d="M76 1434h184l389 -1172l367 1178h133l369 -1178l385 1172h180l-492 -1442h-147l-363 1161l-364 -1161h-148z" />
<glyph unicode="X" horiz-adv-x="1454" d="M55 0l574 778l-482 656h197l385 -521l387 521h193l-482 -654l574 -780h-197l-477 645l-477 -645h-195z" />
<glyph unicode="Y" horiz-adv-x="1368" d="M45 1434h193l448 -625l449 625h188l-555 -775v-659h-168v655z" />
<glyph unicode="Z" horiz-adv-x="1314" d="M96 0v119l865 1163h-816v152h1041v-117l-858 -1165h891v-152h-1123z" />
<glyph unicode="[" horiz-adv-x="802" d="M190 -422v1868h533v-135h-377v-1598h377v-135h-533z" />
<glyph unicode="\" horiz-adv-x="1048" d="M16 1622h168l863 -1909h-168z" />
<glyph unicode="]" horiz-adv-x="804" d="M82 -287h375v1598h-375v135h530v-1868h-530v135z" />
<glyph unicode="^" horiz-adv-x="1067" d="M106 707l349 766h155l351 -766h-156l-270 616l-271 -616h-158z" />
<glyph unicode="_" horiz-adv-x="1275" d="M16 -145h1244v-123h-1244v123z" />
<glyph unicode="`" horiz-adv-x="1073" d="M332 1458h203l196 -276h-153z" />
<glyph unicode="a" horiz-adv-x="1218" d="M86 305.5q0 153.5 115.5 240.5t290.5 87q195 0 350 -92v90q0 241 -317 241h-3q-178 0 -323 -98v154q150 90 358 90q201 0 324 -94.5t123 -276.5v-391q0 -129 92 -129q35 0 57 14v-127q-36 -24 -99 -24h-5q-158 0 -191 155q-151 -170 -395 -170q-158 0 -267.5 88.5 t-109.5 242zM250 313q0 -96 73.5 -144t184.5 -48q102 0 191 45t143 110v136q-147 92 -312 92q-131 0 -205.5 -51.5t-74.5 -139.5z" />
<glyph unicode="b" horiz-adv-x="1302" d="M170 0v1434h164v-594q137 178 377 178q217 0 356 -152.5t139 -369.5q0 -215 -139 -368t-356 -153q-244 0 -377 179v-154h-164zM334 336q41 -92 134 -153.5t204 -61.5q160 0 264 107.5t104 267t-104.5 268t-263.5 108.5q-113 0 -204 -60.5t-134 -154.5v-321z" />
<glyph unicode="c" horiz-adv-x="1071" d="M98 497.5q0 223.5 152.5 372t380.5 148.5q172 0 299 -72v-147q-129 73 -273 73h-4q-164 0 -276.5 -107.5t-112.5 -269t112.5 -268t276.5 -106.5q168 0 295 84v-146q-139 -84 -319 -84q-225 0 -378 149.5t-153 373z" />
<glyph unicode="d" horiz-adv-x="1306" d="M98 496q0 217 139.5 369.5t356.5 152.5q240 0 377 -178v594h164v-1434h-164v154q-133 -178 -377 -179q-217 0 -356.5 153t-139.5 368zM264 495.5q0 -159.5 104.5 -267t264.5 -107.5q111 0 204 61.5t134 153.5v321q-43 94 -134.5 154.5t-203.5 60.5q-160 0 -264.5 -108.5 t-104.5 -268z" />
<glyph unicode="e" horiz-adv-x="1169" d="M98 496q0 223 141.5 372.5t364.5 149.5q156 0 265.5 -84t154.5 -197.5t45 -236.5v-45h-805q14 -154 127 -244t287 -90q176 0 319 92v-143q-125 -95 -352 -95q-231 0 -389 145.5t-158 375.5zM266 586h639q-4 109 -82 197.5t-227 88.5q-143 0 -232.5 -84.5t-97.5 -201.5z " />
<glyph unicode="f" horiz-adv-x="808" d="M53 852v141h195v158q0 139 73.5 219t217.5 80q129 0 213 -39v-147q-90 41 -172 41q-168 0 -168 -183v-129h340v-141h-340v-852h-164v852h-195z" />
<glyph unicode="g" horiz-adv-x="1302" d="M98 506q0 213 139.5 362.5t356.5 149.5q250 0 379 -172v147h162v-923q0 -238 -156 -363t-387 -125q-227 0 -385 90v156q166 -100 368 -100q176 0 287 83t111 257v98q-131 -172 -379 -172q-217 0 -356.5 148.5t-139.5 363.5zM264 506q0 -158 105.5 -262.5t265.5 -104.5 q113 0 204 57.5t134 151.5v316q-43 94 -134 151t-204 57q-160 0 -265.5 -105t-105.5 -261z" />
<glyph unicode="h" horiz-adv-x="1251" d="M170 0v1434h164v-590q145 174 389 174q184 0 280.5 -109.5t96.5 -304.5v-604h-164v569q0 88 -24.5 150.5t-68.5 92.5t-86 41t-91 11q-96 0 -191.5 -59.5t-140.5 -138.5v-666h-164z" />
<glyph unicode="i" horiz-adv-x="550" d="M164 1329q0 47 31.5 79t78.5 32q45 0 78 -32t33 -79t-31.5 -78.5t-79 -31.5t-79 31.5t-31.5 78.5zM193 0v993h161v-993h-161z" />
<glyph unicode="j" horiz-adv-x="550" d="M-125 -233q68 -39 145 -39q172 0 173 194v1071h161v-1093q0 -162 -83 -240t-216 -78q-113 0 -180 37v148zM164 1329q0 47 31.5 79t76.5 32q47 0 80 -32t33 -79t-33 -78.5t-80 -31.5t-77.5 31.5t-30.5 78.5z" />
<glyph unicode="k" horiz-adv-x="1120" d="M170 0v1434h164v-844l454 403h218l-512 -448l585 -545h-229l-516 481v-481h-164z" />
<glyph unicode="l" horiz-adv-x="604" d="M170 223v1211h164v-1170q0 -139 125 -139q53 0 94 25v-146q-56 -29 -150 -29q-98 0 -165.5 57.5t-67.5 190.5z" />
<glyph unicode="m" horiz-adv-x="1882" d="M170 0v993h164v-145q117 170 350 170q121 0 204 -51.5t113 -141.5q55 84 153.5 138.5t225.5 54.5q166 0 258.5 -102.5t92.5 -297.5v-618h-162v582q0 282 -236 282h-2q-90 0 -175 -60.5t-126 -141.5q0 -23 1 -58t1 -57v-547h-162v582q0 88 -23.5 148.5t-62.5 87 t-74.5 36.5t-76.5 10q-88 0 -172 -57t-127 -139v-668h-164z" />
<glyph unicode="n" horiz-adv-x="1251" d="M170 0v993h164v-149q145 174 389 174q184 0 280.5 -109.5t96.5 -304.5v-604h-164v569q0 88 -24.5 150.5t-68.5 92.5t-86 41t-91 11q-96 0 -191.5 -59.5t-140.5 -138.5v-666h-164z" />
<glyph unicode="o" d="M99 496q0 215 151 368.5t387 153.5q238 0 388.5 -152.5t150.5 -369.5t-150.5 -369t-388.5 -152q-236 0 -387 153t-151 368zM265 495.5q0 -159.5 106.5 -267t266 -107.5t266 107.5t106.5 267t-106.5 268t-266 108.5t-266 -108.5t-106.5 -268z" />
<glyph unicode="p" horiz-adv-x="1302" d="M170 -410v1403h164v-153q137 178 377 178q217 0 356 -152.5t139 -367.5q0 -217 -139 -370t-356 -153q-244 0 -377 179v-564h-164zM334 334q43 -94 134 -153.5t204 -59.5q160 0 264 108.5t104 268t-104.5 267t-263.5 107.5q-111 0 -204 -61.5t-134 -153.5v-323z" />
<glyph unicode="q" horiz-adv-x="1306" d="M98 498q0 215 139.5 367.5t356.5 152.5q242 0 379 -178v153h162v-1403h-162v564q-133 -178 -379 -179q-217 0 -356.5 153t-139.5 370zM264 497.5q0 -159.5 105.5 -268t265.5 -108.5q111 0 203 60.5t135 152.5v323q-45 94 -137.5 154.5t-200.5 60.5q-160 0 -265.5 -107.5 t-105.5 -267z" />
<glyph unicode="r" horiz-adv-x="768" d="M170 0v993h164v-186q61 100 167.5 155.5t223.5 55.5v-164q-129 -4 -234.5 -64.5t-156.5 -166.5v-623h-164z" />
<glyph unicode="s" horiz-adv-x="1044" d="M100 78v164q174 -121 406 -121q123 0 192.5 40t69.5 109q0 25 -7 43.5t-24.5 31.5t-35 23.5t-49 19.5t-55.5 15.5t-64.5 16.5t-67.5 16q-178 47 -262 110.5t-84 192.5q0 127 106.5 203t296.5 76q223 0 363 -88v-158q-164 100 -357 100q-123 0 -183 -37.5t-60 -99.5 q0 -31 16 -54.5t37.5 -37.5t68 -29.5t77 -23.5t96.5 -23q166 -37 260 -104.5t94 -196.5q0 -135 -118 -213t-304 -78q-125 0 -237.5 30t-174.5 73z" />
<glyph unicode="t" horiz-adv-x="882" d="M53 852v141h230v301h163v-301h340v-141h-340v-526q0 -109 39 -155t129 -46q96 0 160 41v-146q-70 -45 -207 -45q-141 0 -212.5 82t-71.5 222v573h-230z" />
<glyph unicode="u" horiz-adv-x="1253" d="M152 389v604h163v-569q0 -88 25 -150.5t69 -92t86 -41t91 -11.5q96 0 191 59.5t141 139.5v665h163v-993h-163v150q-145 -174 -390 -175q-184 0 -280 110t-96 304z" />
<glyph unicode="v" horiz-adv-x="1165" d="M53 993h183l350 -784l350 784h174l-455 -999h-147z" />
<glyph unicode="w" horiz-adv-x="1679" d="M74 993h166l268 -753l264 757h135l267 -757l266 753h164l-355 -999h-141l-272 760l-267 -760h-141z" />
<glyph unicode="x" horiz-adv-x="1140" d="M63 0l414 522l-364 471h190l272 -344l275 344h188l-368 -467l413 -526h-190l-320 403l-323 -403h-187z" />
<glyph unicode="y" horiz-adv-x="1142" d="M55 993h181l342 -766l329 766h176l-487 -1104q-135 -307 -360 -307q-117 0 -162 29v149q57 -32 132 -32h5q92 0 154.5 73.5t130.5 235.5z" />
<glyph unicode="z" horiz-adv-x="1036" d="M76 0v109l616 743h-573v141h807v-112l-615 -740h647v-141h-882z" />
<glyph unicode="{" horiz-adv-x="753" d="M111 446v131q70 8 106.5 50t43.5 89.5t7 128.5v310q0 137 77 213.5t212 76.5h123v-135h-86q-170 0 -170 -172v-334q0 -117 -31 -189.5t-112 -102.5q84 -31 113.5 -102.5t29.5 -190.5v-334q0 -172 170 -172h86v-135h-123q-135 0 -212 76.5t-77 214.5v303q0 61 -4 99 t-18.5 80t-48 65.5t-86.5 29.5z" />
<glyph unicode="|" horiz-adv-x="638" d="M248 -227v1783h141v-1783h-141z" />
<glyph unicode="}" horiz-adv-x="753" d="M74 -287h88q168 0 168 172v334q0 119 29.5 190.5t113.5 102.5q-84 31 -113.5 102.5t-29.5 190.5v334q0 82 -43 127t-125 45h-88v135h123q135 0 211.5 -77t76.5 -214v-309q0 -82 7.5 -129t44 -89t106.5 -50v-132q-53 -6 -87 -29.5t-48 -65.5t-18.5 -80t-4.5 -99v-303 q0 -137 -76.5 -214t-211.5 -77h-123v135z" />
<glyph unicode="~" horiz-adv-x="1206" d="M143 416v155q57 78 219 78q88 0 242 -51t242 -51q143 0 219 88v-154q-55 -78 -219 -78q-88 0 -241.5 51.5t-242.5 51.5q-139 0 -219 -90z" />
<glyph unicode="&#xa1;" horiz-adv-x="591" d="M182 891q0 47 34 81t81 34t80 -34t33 -81t-33 -80t-80 -33t-81 33t-34 80zM190 -410l31 961h150l30 -961h-211z" />
<glyph unicode="&#xa2;" horiz-adv-x="1071" d="M98 497.5q0 204.5 129 346t330 168.5v221h139v-217q135 -12 234 -70v-147q-131 74 -277 73q-164 0 -276.5 -107.5t-112.5 -269t112.5 -268t276.5 -106.5q168 0 295 84v-146q-109 -70 -252 -82v-217h-139v220q-199 23 -329 168t-130 349.5z" />
<glyph unicode="&#xa3;" horiz-adv-x="1189" d="M119 0v150h39q111 0 110 167v285h-149v146h149v245q0 223 125 344t350 121q197 0 332 -86v-162q-135 92 -309 93q-162 0 -247 -85t-85 -247v-223h551v-146h-551v-338q0 -80 -49 -114h705v-150h-971z" />
<glyph unicode="&#xa4;" horiz-adv-x="1155" d="M104 332l134 133q-82 109 -82 254t82 252l-134 133l86 84l134 -131q111 86 251 86q147 0 252 -86l134 131l88 -84l-136 -133q84 -109 84 -252q0 -145 -82 -254l134 -133l-88 -82l-134 131q-104 -86 -252 -86q-141 0 -251 86l-134 -131zM289 719q0 -121 83 -206t203.5 -85 t203.5 85t83 206t-83 206t-203.5 85t-203.5 -85t-83 -206z" />
<glyph unicode="&#xa5;" horiz-adv-x="1298" d="M45 1434h193l413 -627l416 627h187l-465 -691h370v-135h-428v-186h428v-135h-428v-287h-166v287h-426v135h426v186h-426v135h371z" />
<glyph unicode="&#xa6;" horiz-adv-x="638" d="M248 -227v723h141v-723h-141zM248 834v722h141v-722h-141z" />
<glyph unicode="&#xa7;" horiz-adv-x="1320" d="M123 612q0 100 62.5 174t168.5 113q-160 92 -159 242q0 141 125.5 229t347.5 88q238 0 446 -110v-170q-229 125 -455 125q-139 0 -218 -46.5t-79 -123.5q0 -27 9.5 -48.5t33 -41t43 -33t63.5 -29.5t68.5 -24.5t85 -27t87.5 -26.5q106 -35 177.5 -66.5t138.5 -75.5 t99.5 -103.5t32.5 -133.5q0 -102 -62.5 -175.5t-168.5 -112.5q160 -92 159 -242q0 -141 -125.5 -229.5t-347.5 -88.5q-238 0 -446 111v170q229 -125 455 -125q141 0 219 47t78 125q0 20 -6.5 37.5t-19.5 33t-27.5 28t-40 24.5t-45 21.5t-55.5 21.5t-59.5 19.5t-67.5 20.5 t-69 21q-223 72 -335.5 155t-112.5 226zM279 627q0 -43 27.5 -82t64.5 -65.5t104.5 -55.5t113.5 -44t127.5 -40t114.5 -35q94 18 153.5 72.5t59.5 130.5q0 45 -27.5 84t-65.5 65.5t-103.5 54t-113.5 43t-128 40t-114 36.5q-96 -20 -154.5 -73t-58.5 -131z" />
<glyph unicode="&#xa8;" horiz-adv-x="1073" d="M236 1323q0 45 28.5 73.5t73.5 28.5q43 0 71.5 -28.5t28.5 -73.5q0 -43 -28.5 -71.5t-71.5 -28.5q-45 0 -73.5 28.5t-28.5 71.5zM647 1323q0 45 30 73.5t73 28.5t71.5 -28.5t28.5 -73.5q0 -43 -28.5 -71.5t-71.5 -28.5t-73 28.5t-30 71.5z" />
<glyph unicode="&#xa9;" horiz-adv-x="1763" d="M139 719q0 305 217 522t525 217q311 0 526 -217t215 -526q0 -305 -217 -522.5t-526.5 -217.5t-524.5 217.5t-215 526.5zM201 714.5q0 -284.5 196.5 -484t481 -199.5t483.5 201.5t199 484.5q0 285 -197 485.5t-483 200.5q-283 0 -481.5 -202t-198.5 -486.5zM522 717 q0 168 117 282.5t289 114.5q117 0 207 -49v-123q-88 59 -207 59q-117 0 -197 -80.5t-80 -203.5q0 -125 80 -205t201 -80q129 0 223 74v-125q-94 -64 -227 -64q-172 0 -289 116t-117 284z" />
<glyph unicode="&#xaa;" horiz-adv-x="1042" d="M121 901q0 117 89 183.5t222 66.5q145 0 266 -70v68q0 184 -245 184q-129 0 -246 -73v114q117 70 272 70q154 0 248 -72t94 -209v-309q0 -88 70 -88q29 0 43 8v-96q-27 -18 -80 -19q-121 0 -145 119q-115 -129 -299 -129q-121 0 -205 66.5t-84 185.5zM246 907 q0 -72 56 -109.5t140 -37.5q78 0 147.5 35t108.5 84v102q-115 72 -239 72q-100 0 -156.5 -39t-56.5 -107z" />
<glyph unicode="&#xab;" horiz-adv-x="1132" d="M92 455v84l305 372h168l-336 -415l336 -414h-168zM565 455v84l305 372h172l-335 -415l335 -414h-172z" />
<glyph unicode="&#xac;" horiz-adv-x="1167" d="M143 657v148h883v-496h-147v348h-736z" />
<glyph unicode="&#xad;" horiz-adv-x="987" d="M205 483v150h579v-150h-579z" />
<glyph unicode="&#xae;" horiz-adv-x="1763" d="M139 719q0 305 217 522t525 217q311 0 526 -217t215 -526q0 -305 -217 -522.5t-526.5 -217.5t-524.5 217.5t-215 526.5zM201 714.5q0 -284.5 196.5 -484t481 -199.5t483.5 201.5t199 484.5q0 285 -197 485.5t-483 200.5q-283 0 -481.5 -202t-198.5 -486.5zM594 344v770 h352q121 0 188.5 -60.5t67.5 -158.5q0 -80 -44 -135t-124 -74l244 -342h-141l-234 330h-186v-330h-123zM717 774h225q63 0 99 31t36 86q0 117 -135 117h-225v-234z" />
<glyph unicode="&#xaf;" horiz-adv-x="1058" d="M262 1262v120h529v-120h-529z" />
<glyph unicode="&#xb0;" horiz-adv-x="868" d="M121 1147q0 127 92 219t221 92t222.5 -92t93.5 -219q0 -129 -93.5 -220t-222.5 -91t-221 91t-92 220zM236 1147q0 -84 57 -142.5t141 -58.5t141.5 58.5t57.5 142.5t-57.5 143.5t-141.5 59.5t-141 -59.5t-57 -143.5z" />
<glyph unicode="&#xb1;" d="M143 102v148h987v-148h-987zM143 745v148h420v352h146v-352h421v-148h-421v-344h-146v344h-420z" />
<glyph unicode="&#xb2;" horiz-adv-x="735" d="M88 659v103l244 219q78 72 111.5 120t33.5 97q0 53 -40 86t-105 33q-113 0 -221 -88v139q98 76 231 76q113 0 193.5 -63.5t80.5 -166.5q0 -78 -39.5 -143t-130.5 -151l-149 -144h344v-117h-553z" />
<glyph unicode="&#xb3;" horiz-adv-x="671" d="M53 708v129q111 -68 228 -67q76 0 130 39.5t54 105.5q0 61 -46 98t-128 37q-57 0 -105 -18v90l209 194h-315v117h493v-104l-200 -189q92 -10 161.5 -65.5t69.5 -163.5q0 -117 -90 -189.5t-221 -72.5q-152 0 -240 59z" />
<glyph unicode="&#xb4;" horiz-adv-x="1007" d="M358 1182l197 276h205l-248 -276h-154z" />
<glyph unicode="&#xb5;" d="M170 -410v1403h164v-569q0 -297 270 -297q96 0 191.5 60.5t140.5 138.5v667h164v-993h-164v147q-147 -172 -385 -172q-131 0 -217 58v-443h-164z" />
<glyph unicode="&#xb6;" horiz-adv-x="1085" d="M94 1038.5q0 178.5 121 287t336 108.5h338v-1434h-166v641h-172q-215 0 -336 109.5t-121 288z" />
<glyph unicode="&#xb7;" horiz-adv-x="489" d="M131 782q0 47 33 81t82 34q47 0 79.5 -34t32.5 -81t-32.5 -79.5t-79.5 -32.5q-49 0 -82 32.5t-33 79.5z" />
<glyph unicode="&#xb8;" horiz-adv-x="991" d="M276 -272l203 284h135l-143 -284h-195z" />
<glyph unicode="&#xb9;" horiz-adv-x="503" d="M45 1171v139l217 123h135v-774h-139v629z" />
<glyph unicode="&#xba;" horiz-adv-x="950" d="M63 1046.5q0 167.5 116 282.5t296 115t296 -115t116 -282.5t-116 -282.5t-296 -115t-296 115t-116 282.5zM203 1046.5q0 -118.5 77.5 -198.5t194.5 -80q119 0 197 80t78 198.5t-78 198.5t-197 80q-117 0 -194.5 -80t-77.5 -198.5z" />
<glyph unicode="&#xbb;" horiz-adv-x="1130" d="M88 82l336 416l-336 413h172l305 -372v-84l-305 -373h-172zM565 82l334 416l-334 413h168l305 -372v-84l-305 -373h-168z" />
<glyph unicode="&#xbc;" horiz-adv-x="1531" d="M45 1171v140l217 123h135v-775h-139v629zM227 0l848 1434h150l-848 -1434h-150zM834 199v98l397 477h139v-465h119v-110h-119v-199h-135v199h-401zM981 309h254v301z" />
<glyph unicode="&#xbd;" horiz-adv-x="1644" d="M45 1171v140l217 123h135v-775h-139v629zM227 0l848 1434h150l-848 -1434h-150zM997 0v102l244 220q78 72 111.5 119.5t33.5 97.5q0 53 -39.5 85.5t-105.5 32.5q-113 0 -221 -88v140q98 76 231 75q113 0 194 -63.5t81 -165.5q0 -78 -40 -143.5t-130 -151.5l-150 -143h344 v-117h-553z" />
<glyph unicode="&#xbe;" horiz-adv-x="1630" d="M53 708v129q111 -68 228 -67q76 0 130 39.5t54 105.5q0 61 -46 98t-128 37q-57 0 -105 -18v90l209 194h-315v117h493v-104l-200 -189q92 -10 161.5 -65.5t69.5 -163.5q0 -117 -90 -189.5t-221 -72.5q-152 0 -240 59zM328 0l848 1434h150l-848 -1434h-150zM932 199v98 l397 478h140v-465h118v-111h-118v-199h-136v199h-401zM1079 310h254v301z" />
<glyph unicode="&#xbf;" horiz-adv-x="978" d="M92 -33q0 147 107.5 246.5t269.5 151.5v186h156v-272q-145 -27 -256 -109t-111 -197q0 -113 85 -178t220 -65q184 0 352 118v-151q-156 -115 -378 -115q-186 0 -315.5 104.5t-129.5 280.5zM430 891q0 47 33 81t80 34q49 0 80.5 -33t31.5 -82t-31.5 -81t-80.5 -32 q-47 0 -80 33t-33 80z" />
<glyph unicode="&#xc0;" horiz-adv-x="1546" d="M57 0l637 1442h158l637 -1442h-176l-174 387h-738l-170 -387h-174zM451 1837h207l194 -274h-153zM459 535h626l-313 698z" />
<glyph unicode="&#xc1;" horiz-adv-x="1546" d="M57 0l637 1442h158l637 -1442h-176l-174 387h-738l-170 -387h-174zM459 535h626l-313 698zM702 1563l195 274h204l-245 -274h-154z" />
<glyph unicode="&#xc2;" horiz-adv-x="1546" d="M57 0l637 1442h158l637 -1442h-176l-174 387h-738l-170 -387h-174zM459 535h626l-313 698zM463 1563l227 274h164l230 -274h-158l-154 184l-151 -184h-158z" />
<glyph unicode="&#xc3;" horiz-adv-x="1546" d="M57 0l637 1442h158l637 -1442h-176l-174 387h-738l-170 -387h-174zM444 1587q4 98 54 165t130 67q57 0 151.5 -55.5t131.5 -55.5q41 0 57.5 26.5t26.5 75.5h106q-2 -100 -52 -165.5t-132 -65.5q-57 0 -150.5 56.5t-130.5 56.5q-72 0 -84 -105h-108zM459 535h626l-313 698 z" />
<glyph unicode="&#xc4;" horiz-adv-x="1546" d="M57 0l637 1442h158l637 -1442h-176l-174 387h-738l-170 -387h-174zM459 535h626l-313 698zM467 1698q0 43 28.5 71.5t71.5 28.5q45 0 73.5 -28.5t28.5 -71.5q0 -45 -28.5 -74t-73.5 -29q-43 0 -71.5 29t-28.5 74zM878 1698q0 43 30 71.5t73 28.5t71.5 -28.5t28.5 -71.5 q0 -45 -28.5 -74t-71.5 -29t-73 29t-30 74z" />
<glyph unicode="&#xc5;" horiz-adv-x="1546" d="M57 0l637 1442h158l637 -1442h-176l-174 387h-738l-170 -387h-174zM459 535h626l-313 698zM576 1702q0 82 57 139t141 57q80 0 138.5 -57t58.5 -139t-58.5 -140.5t-138.5 -58.5q-84 0 -141 57.5t-57 141.5zM660 1702q0 -47 33.5 -80t80.5 -33t79 33t32 80t-32 80t-79 33 t-80.5 -33t-33.5 -80z" />
<glyph unicode="&#xc6;" horiz-adv-x="2113" d="M16 0l871 1434h1108v-152h-815v-438h665v-152h-665v-540h841v-152h-1007v387h-578l-235 -387h-185zM522 535h492v747h-35z" />
<glyph unicode="&#xc7;" horiz-adv-x="1411" d="M139 717q0 322 211 531.5t529 209.5q231 0 399 -104v-170q-180 119 -397 119q-242 0 -406 -167t-164 -419q0 -254 165 -420t411 -166t422 139v-170q-145 -104 -355 -120l-127 -252h-194l178 249q-291 23 -481.5 229t-190.5 511z" />
<glyph unicode="&#xc8;" horiz-adv-x="1310" d="M199 0v1434h989v-152h-823v-438h673v-152h-673v-540h854v-152h-1020zM395 1837h207l194 -274h-153z" />
<glyph unicode="&#xc9;" horiz-adv-x="1310" d="M199 0v1434h989v-152h-823v-438h673v-152h-673v-540h854v-152h-1020zM563 1563l195 274h204l-245 -274h-154z" />
<glyph unicode="&#xca;" horiz-adv-x="1310" d="M199 0v1434h989v-152h-823v-438h673v-152h-673v-540h854v-152h-1020zM397 1563l227 274h164l230 -274h-158l-154 184l-151 -184h-158z" />
<glyph unicode="&#xcb;" horiz-adv-x="1310" d="M199 0v1434h989v-152h-823v-438h673v-152h-673v-540h854v-152h-1020zM390 1698q0 43 28.5 71.5t71.5 28.5q45 0 73.5 -28.5t28.5 -71.5q0 -45 -28.5 -74t-73.5 -29q-43 0 -71.5 29t-28.5 74zM801 1698q0 43 30 71.5t73 28.5t71.5 -28.5t28.5 -71.5q0 -45 -28.5 -74 t-71.5 -29t-73 29t-30 74z" />
<glyph unicode="&#xcc;" horiz-adv-x="581" d="M-35 1837h207l194 -274h-153zM209 0v1434h166v-1434h-166z" />
<glyph unicode="&#xcd;" horiz-adv-x="581" d="M209 0v1434h166v-1434h-166zM215 1563l195 274h204l-245 -274h-154z" />
<glyph unicode="&#xce;" horiz-adv-x="581" d="M-19 1563l227 274h164l230 -274h-158l-154 184l-151 -184h-158zM209 0v1434h166v-1434h-166z" />
<glyph unicode="&#xcf;" horiz-adv-x="579" d="M-16 1698q0 43 28.5 71.5t71.5 28.5q45 0 73.5 -28.5t28.5 -71.5q0 -45 -28.5 -74t-73.5 -29q-43 0 -71.5 29t-28.5 74zM209 0v1434h166v-1434h-166zM395 1698q0 43 30 71.5t73 28.5t71.5 -28.5t28.5 -71.5q0 -45 -28.5 -74t-71.5 -29t-73 29t-30 74z" />
<glyph unicode="&#xd0;" horiz-adv-x="1695" d="M76 659v150h225v625h475q346 0 562 -199t216 -518.5t-216 -518t-562 -198.5h-475v659h-225zM467 152h291q291 0 458.5 152.5t167.5 412.5t-167.5 412.5t-458.5 152.5h-291v-473h328v-150h-328v-507z" />
<glyph unicode="&#xd1;" horiz-adv-x="1587" d="M199 0v1434h143l887 -1145v1145h162v-1434h-142l-889 1149v-1149h-161zM465 1587q4 98 54 165t130 67q57 0 151.5 -55.5t131.5 -55.5q41 0 57.5 26.5t26.5 75.5h106q-2 -100 -52 -165.5t-132 -65.5q-57 0 -150.5 56.5t-130.5 56.5q-72 0 -84 -105h-108z" />
<glyph unicode="&#xd2;" horiz-adv-x="1728" d="M139 716.5q0 317.5 207 529.5t516 212t517 -212t208 -529.5t-208 -529.5t-517 -212t-516 212t-207 529.5zM309 717q0 -250 160 -418t393 -168q236 0 395.5 168t159.5 418t-159.5 418t-395.5 168q-233 0 -393 -168t-160 -418zM543 1837h207l194 -274h-153z" />
<glyph unicode="&#xd3;" horiz-adv-x="1728" d="M139 716.5q0 317.5 207 529.5t516 212t517 -212t208 -529.5t-208 -529.5t-517 -212t-516 212t-207 529.5zM309 717q0 -250 160 -418t393 -168q236 0 395.5 168t159.5 418t-159.5 418t-395.5 168q-233 0 -393 -168t-160 -418zM754 1563l195 274h204l-245 -274h-154z" />
<glyph unicode="&#xd4;" horiz-adv-x="1728" d="M139 716.5q0 317.5 207 529.5t516 212t517 -212t208 -529.5t-208 -529.5t-517 -212t-516 212t-207 529.5zM309 717q0 -250 160 -418t393 -168q236 0 395.5 168t159.5 418t-159.5 418t-395.5 168q-233 0 -393 -168t-160 -418zM555 1563l227 274h164l230 -274h-158 l-154 184l-151 -184h-158z" />
<glyph unicode="&#xd5;" horiz-adv-x="1728" d="M139 716.5q0 317.5 207 529.5t516 212t517 -212t208 -529.5t-208 -529.5t-517 -212t-516 212t-207 529.5zM309 717q0 -250 160 -418t393 -168q236 0 395.5 168t159.5 418t-159.5 418t-395.5 168q-233 0 -393 -168t-160 -418zM535 1587q4 98 54 165t130 67 q57 0 151.5 -55.5t131.5 -55.5q41 0 57.5 26.5t26.5 75.5h106q-2 -100 -52 -165.5t-132 -65.5q-57 0 -150.5 56.5t-130.5 56.5q-72 0 -84 -105h-108z" />
<glyph unicode="&#xd6;" horiz-adv-x="1728" d="M139 716.5q0 317.5 207 529.5t516 212t517 -212t208 -529.5t-208 -529.5t-517 -212t-516 212t-207 529.5zM309 717q0 -250 160 -418t393 -168q236 0 395.5 168t159.5 418t-159.5 418t-395.5 168q-233 0 -393 -168t-160 -418zM558 1698q0 43 28.5 71.5t71.5 28.5 q45 0 73.5 -28.5t28.5 -71.5q0 -45 -28.5 -74t-73.5 -29q-43 0 -71.5 29t-28.5 74zM969 1698q0 43 30 71.5t73 28.5t71.5 -28.5t28.5 -71.5q0 -45 -28.5 -74t-71.5 -29t-73 29t-30 74z" />
<glyph unicode="&#xd7;" horiz-adv-x="1124" d="M143 348l318 320l-318 317l103 102l317 -317l320 317l100 -102l-315 -317l315 -318l-100 -104l-318 315l-319 -315z" />
<glyph unicode="&#xd8;" horiz-adv-x="1728" d="M139 717q0 317 207 529t516 212q246 0 424 -135l92 111h158l-156 -189q207 -211 207 -528.5t-208 -529.5t-517 -212q-240 0 -426 134l-88 -109h-158l156 186q-207 211 -207 531zM309 717q0 -240 144 -402l731 883q-139 104 -322 105q-233 0 -393 -168t-160 -418zM543 233 q141 -102 319 -102q236 0 395.5 168t159.5 418q0 233 -143 399z" />
<glyph unicode="&#xd9;" horiz-adv-x="1529" d="M176 610v824h166v-828q0 -227 114.5 -351t307.5 -124q195 0 309.5 124t114.5 351v828h166v-824q0 -303 -164 -469t-426 -166t-425 166t-163 469zM461 1837h207l194 -274h-153z" />
<glyph unicode="&#xda;" horiz-adv-x="1529" d="M176 610v824h166v-828q0 -227 114.5 -351t307.5 -124q195 0 309.5 124t114.5 351v828h166v-824q0 -303 -164 -469t-426 -166t-425 166t-163 469zM678 1563l195 274h204l-245 -274h-154z" />
<glyph unicode="&#xdb;" horiz-adv-x="1529" d="M176 610v824h166v-828q0 -227 114.5 -351t307.5 -124q195 0 309.5 124t114.5 351v828h166v-824q0 -303 -164 -469t-426 -166t-425 166t-163 469zM455 1563l227 274h164l230 -274h-158l-154 184l-151 -184h-158z" />
<glyph unicode="&#xdc;" horiz-adv-x="1529" d="M176 610v824h166v-828q0 -227 114.5 -351t307.5 -124q195 0 309.5 124t114.5 351v828h166v-824q0 -303 -164 -469t-426 -166t-425 166t-163 469zM461 1698q0 43 28.5 71.5t71.5 28.5q45 0 73.5 -28.5t28.5 -71.5q0 -45 -28.5 -74t-73.5 -29q-43 0 -71.5 29t-28.5 74z M872 1698q0 43 30 71.5t73 28.5t71.5 -28.5t28.5 -71.5q0 -45 -28.5 -74t-71.5 -29t-73 29t-30 74z" />
<glyph unicode="&#xdd;" horiz-adv-x="1368" d="M45 1434h193l448 -625l449 625h188l-555 -775v-659h-168v655zM590 1563l195 274h204l-245 -274h-154z" />
<glyph unicode="&#xde;" horiz-adv-x="1359" d="M199 0v1434h163v-316h441q217 0 340 -110.5t123 -290.5q0 -184 -123 -296t-340 -112h-438v-309h-166zM365 461h426q147 0 228 64.5t81 187.5t-81 188.5t-228 65.5h-426v-506z" />
<glyph unicode="&#xdf;" horiz-adv-x="1263" d="M170 0v1001q0 205 125 327t326 122q195 0 311.5 -102.5t116.5 -257.5q0 -227 -201 -293q133 -31 226 -136.5t93 -273.5q0 -190 -124.5 -301t-321.5 -111q-125 0 -189 29v150q76 -33 162 -33q139 0 226.5 75.5t87.5 206.5q0 143 -103.5 232.5t-277.5 89.5h-43v125h43 q123 0 192.5 58.5t69.5 166.5q0 102 -74 166t-192 64q-129 0 -209 -81t-80 -223v-1001h-164z" />
<glyph unicode="&#xe0;" horiz-adv-x="1218" d="M86 305.5q0 153.5 115.5 240.5t290.5 87q195 0 350 -92v90q0 242 -320 241q-178 0 -323 -98v154q150 90 358 90q201 0 324 -94.5t123 -276.5v-391q0 -129 92 -129q35 0 57 14v-127q-37 -25 -104 -24q-158 0 -191 155q-151 -170 -395 -170q-158 0 -267.5 88.5t-109.5 242z M250 313q0 -96 73.5 -144t184.5 -48q102 0 191 45t143 110v136q-147 92 -312 92q-131 0 -205.5 -51.5t-74.5 -139.5zM314 1458h203l196 -276h-153z" />
<glyph unicode="&#xe1;" horiz-adv-x="1218" d="M86 305.5q0 153.5 115.5 240.5t290.5 87q195 0 350 -92v90q0 242 -320 241q-178 0 -323 -98v154q150 90 358 90q201 0 324 -94.5t123 -276.5v-391q0 -129 92 -129q35 0 57 14v-127q-37 -25 -104 -24q-158 0 -191 155q-151 -170 -395 -170q-158 0 -267.5 88.5t-109.5 242z M250 313q0 -96 73.5 -144t184.5 -48q102 0 191 45t143 110v136q-147 92 -312 92q-131 0 -205.5 -51.5t-74.5 -139.5zM448 1182l197 276h205l-248 -276h-154z" />
<glyph unicode="&#xe2;" horiz-adv-x="1218" d="M86 305.5q0 153.5 115.5 240.5t290.5 87q195 0 350 -92v90q0 242 -320 241q-178 0 -323 -98v154q150 90 358 90q201 0 324 -94.5t123 -276.5v-391q0 -129 92 -129q35 0 57 14v-127q-37 -25 -104 -24q-158 0 -191 155q-151 -170 -395 -170q-158 0 -267.5 88.5t-109.5 242z M250 313q0 -96 73.5 -144t184.5 -48q102 0 191 45t143 110v136q-147 92 -312 92q-131 0 -205.5 -51.5t-74.5 -139.5zM254 1182l229 276h166l227 -276h-158l-153 184l-154 -184h-157z" />
<glyph unicode="&#xe3;" horiz-adv-x="1218" d="M86 305.5q0 153.5 115.5 240.5t290.5 87q195 0 350 -92v90q0 242 -320 241q-178 0 -323 -98v154q150 90 358 90q201 0 324 -94.5t123 -276.5v-391q0 -129 92 -129q35 0 57 14v-127q-37 -25 -104 -24q-158 0 -191 155q-151 -170 -395 -170q-158 0 -267.5 88.5t-109.5 242z M248 1210q4 102 53 168t131 66q57 0 150.5 -56.5t130.5 -56.5q41 0 57 26.5t27 78.5h106q-2 -102 -51 -167t-133 -65q-57 0 -150.5 55.5t-130.5 55.5q-72 0 -84 -105h-106zM250 313q0 -96 73.5 -144t184.5 -48q102 0 191 45t143 110v136q-147 92 -312 92 q-131 0 -205.5 -51.5t-74.5 -139.5z" />
<glyph unicode="&#xe4;" horiz-adv-x="1218" d="M86 305.5q0 153.5 115.5 240.5t290.5 87q195 0 350 -92v90q0 242 -320 241q-178 0 -323 -98v154q150 90 358 90q201 0 324 -94.5t123 -276.5v-391q0 -129 92 -129q35 0 57 14v-127q-37 -25 -104 -24q-158 0 -191 155q-151 -170 -395 -170q-158 0 -267.5 88.5t-109.5 242z M250 313q0 -96 73.5 -144t184.5 -48q102 0 191 45t143 110v136q-147 92 -312 92q-131 0 -205.5 -51.5t-74.5 -139.5zM265 1323q0 45 28.5 73.5t73.5 28.5q43 0 71.5 -28.5t28.5 -73.5q0 -43 -28.5 -71.5t-71.5 -28.5q-45 0 -73.5 28.5t-28.5 71.5zM676 1323q0 45 30 73.5 t73 28.5t71.5 -28.5t28.5 -73.5q0 -43 -28.5 -71.5t-71.5 -28.5t-73 28.5t-30 71.5z" />
<glyph unicode="&#xe5;" horiz-adv-x="1218" d="M86 305.5q0 153.5 115.5 240.5t290.5 87q195 0 350 -92v90q0 242 -320 241q-178 0 -323 -98v154q150 90 358 90q201 0 324 -94.5t123 -276.5v-391q0 -129 92 -129q35 0 57 14v-127q-37 -25 -104 -24q-158 0 -191 155q-151 -170 -395 -170q-158 0 -267.5 88.5t-109.5 242z M250 313q0 -96 73.5 -144t184.5 -48q102 0 191 45t143 110v136q-147 92 -312 92q-131 0 -205.5 -51.5t-74.5 -139.5zM379 1323q0 82 58.5 140.5t140.5 58.5t140 -58.5t58 -140.5q0 -80 -58 -138.5t-140 -58.5t-140.5 58.5t-58.5 138.5zM465 1323q0 -45 33 -78t80 -33 t79.5 32t32.5 79q0 49 -32.5 81t-79.5 32t-80 -32t-33 -81z" />
<glyph unicode="&#xe6;" horiz-adv-x="1906" d="M86 305.5q0 153.5 115.5 240.5t290.5 87q201 0 352 -92v86q0 246 -322 245q-182 0 -323 -96v152q150 90 360 90q133 0 235.5 -53.5t149.5 -155.5q66 98 169.5 153.5t227.5 55.5q119 0 212.5 -48t146.5 -126t79.5 -166t26.5 -178v-45h-805q14 -154 128 -244t286 -90 q180 0 320 92v-143q-125 -94 -351 -95q-147 0 -265 58.5t-189 167.5q-76 -90 -194 -158t-265 -68q-166 0 -275.5 88.5t-109.5 242zM250 313q0 -94 70.5 -143t187.5 -49q115 0 212 53t154 133q-20 51 -28 101q-152 98 -316 98q-131 0 -205.5 -51.5t-74.5 -141.5zM1004 586 h638q-4 109 -81.5 197.5t-225.5 88.5q-145 0 -234 -83.5t-97 -202.5z" />
<glyph unicode="&#xe7;" horiz-adv-x="1071" d="M98 498q0 223 152.5 371.5t380.5 148.5q172 0 299 -72v-147q-131 74 -277 73q-164 0 -276.5 -107.5t-112.5 -269t112.5 -268t276.5 -106.5q168 0 295 84v-146q-100 -61 -223 -77l-129 -254h-193l177 249q-209 18 -345.5 163t-136.5 358z" />
<glyph unicode="&#xe8;" horiz-adv-x="1169" d="M98 496q0 223 141.5 372.5t364.5 149.5q156 0 265.5 -84t154.5 -197.5t45 -236.5v-45h-805q14 -154 127 -244t287 -90q176 0 319 92v-143q-125 -95 -352 -95q-231 0 -389 145.5t-158 375.5zM266 586h639q-4 109 -82 197.5t-227 88.5q-143 0 -232.5 -84.5t-97.5 -201.5z M357 1458h203l196 -276h-153z" />
<glyph unicode="&#xe9;" horiz-adv-x="1169" d="M98 496q0 223 141.5 372.5t364.5 149.5q156 0 265.5 -84t154.5 -197.5t45 -236.5v-45h-805q14 -154 127 -244t287 -90q176 0 319 92v-143q-125 -95 -352 -95q-231 0 -389 145.5t-158 375.5zM266 586h639q-4 109 -82 197.5t-227 88.5q-143 0 -232.5 -84.5t-97.5 -201.5z M466 1182l197 276h205l-248 -276h-154z" />
<glyph unicode="&#xea;" horiz-adv-x="1169" d="M98 496q0 223 141.5 372.5t364.5 149.5q156 0 265.5 -84t154.5 -197.5t45 -236.5v-45h-805q14 -154 127 -244t287 -90q176 0 319 92v-143q-125 -95 -352 -95q-231 0 -389 145.5t-158 375.5zM266 586h639q-4 109 -82 197.5t-227 88.5q-143 0 -232.5 -84.5t-97.5 -201.5z M287 1182l229 276h166l227 -276h-158l-153 184l-154 -184h-157z" />
<glyph unicode="&#xeb;" horiz-adv-x="1169" d="M98 496q0 223 141.5 372.5t364.5 149.5q156 0 265.5 -84t154.5 -197.5t45 -236.5v-45h-805q14 -154 127 -244t287 -90q176 0 319 92v-143q-125 -95 -352 -95q-231 0 -389 145.5t-158 375.5zM266 586h639q-4 109 -82 197.5t-227 88.5q-143 0 -232.5 -84.5t-97.5 -201.5z M291 1323q0 45 28.5 73.5t73.5 28.5q43 0 71.5 -28.5t28.5 -73.5q0 -43 -28.5 -71.5t-71.5 -28.5q-45 0 -73.5 28.5t-28.5 71.5zM702 1323q0 45 30 73.5t73 28.5t71.5 -28.5t28.5 -73.5q0 -43 -28.5 -71.5t-71.5 -28.5t-73 28.5t-30 71.5z" />
<glyph unicode="&#xec;" horiz-adv-x="530" d="M-69 1458h203l196 -276h-153zM182 0v993h164v-993h-164z" />
<glyph unicode="&#xed;" horiz-adv-x="530" d="M182 0v993h164v-993h-164zM195 1184l194 274h205l-248 -274h-151z" />
<glyph unicode="&#xee;" horiz-adv-x="532" d="M-45 1182l229 276h166l227 -276h-158l-153 184l-154 -184h-157zM184 0v993h164v-993h-164z" />
<glyph unicode="&#xef;" horiz-adv-x="528" d="M-43 1323q0 45 28.5 73.5t73.5 28.5q43 0 72 -28.5t29 -73.5q0 -43 -29 -71.5t-72 -28.5q-45 0 -73.5 28.5t-28.5 71.5zM182 0v993h164v-993h-164zM369 1323q0 45 29.5 73.5t72.5 28.5t71.5 -28.5t28.5 -73.5q0 -43 -28.5 -71.5t-71.5 -28.5t-72.5 28.5t-29.5 71.5z" />
<glyph unicode="&#xf0;" horiz-adv-x="1224" d="M98 465q0 201 133.5 339t337.5 138q133 0 230 -49l-209 285l-264 -107l-68 92l264 105l-123 166h176l82 -113l215 90l68 -92l-217 -90l229 -324q88 -125 132 -220t44 -208q0 -207 -145 -354.5t-369 -147.5q-225 0 -370.5 144.5t-145.5 345.5zM262 469q0 -147 101 -247.5 t251 -100.5q147 0 249 101.5t102 246.5q0 147 -100.5 247.5t-250 100.5t-251 -100.5t-101.5 -247.5z" />
<glyph unicode="&#xf1;" horiz-adv-x="1251" d="M170 0v993h164v-149q145 174 389 174q184 0 280.5 -109.5t96.5 -304.5v-604h-164v569q0 88 -24.5 150.5t-68.5 92.5t-86 41t-91 11q-96 0 -191.5 -59.5t-140.5 -138.5v-666h-164zM312 1210q4 102 53 168t131 66q57 0 150.5 -56.5t130.5 -56.5q41 0 57 26.5t27 78.5h106 q-2 -102 -51 -167t-133 -65q-57 0 -150.5 55.5t-130.5 55.5q-72 0 -84 -105h-106z" />
<glyph unicode="&#xf2;" d="M99 496q0 215 151 368.5t387 153.5q238 0 388.5 -152.5t150.5 -369.5t-150.5 -369t-388.5 -152q-236 0 -387 153t-151 368zM265 495.5q0 -159.5 106.5 -267t266 -107.5t266 107.5t106.5 267t-106.5 268t-266 108.5t-266 -108.5t-106.5 -268zM346 1458h203l196 -276h-153z " />
<glyph unicode="&#xf3;" d="M99 496q0 215 151 368.5t387 153.5q238 0 388.5 -152.5t150.5 -369.5t-150.5 -369t-388.5 -152q-236 0 -387 153t-151 368zM265 495.5q0 -159.5 106.5 -267t266 -107.5t266 107.5t106.5 267t-106.5 268t-266 108.5t-266 -108.5t-106.5 -268zM540 1182l197 276h205 l-248 -276h-154z" />
<glyph unicode="&#xf4;" d="M99 496q0 215 151 368.5t387 153.5q238 0 388.5 -152.5t150.5 -369.5t-150.5 -369t-388.5 -152q-236 0 -387 153t-151 368zM265 495.5q0 -159.5 106.5 -267t266 -107.5t266 107.5t106.5 267t-106.5 268t-266 108.5t-266 -108.5t-106.5 -268zM328 1182l229 276h166 l227 -276h-158l-153 184l-154 -184h-157z" />
<glyph unicode="&#xf5;" d="M99 496q0 215 151 368.5t387 153.5q238 0 388.5 -152.5t150.5 -369.5t-150.5 -369t-388.5 -152q-236 0 -387 153t-151 368zM265 495.5q0 -159.5 106.5 -267t266 -107.5t266 107.5t106.5 267t-106.5 268t-266 108.5t-266 -108.5t-106.5 -268zM312 1210q4 102 53 168 t131 66q57 0 150.5 -56.5t130.5 -56.5q41 0 57 26.5t27 78.5h106q-2 -102 -51 -167t-133 -65q-57 0 -150.5 55.5t-130.5 55.5q-72 0 -84 -105h-106z" />
<glyph unicode="&#xf6;" d="M99 496q0 215 151 368.5t387 153.5q238 0 388.5 -152.5t150.5 -369.5t-150.5 -369t-388.5 -152q-236 0 -387 153t-151 368zM265 495.5q0 -159.5 106.5 -267t266 -107.5t266 107.5t106.5 267t-106.5 268t-266 108.5t-266 -108.5t-106.5 -268zM332 1323q0 45 28.5 73.5 t73.5 28.5q43 0 71.5 -28.5t28.5 -73.5q0 -43 -28.5 -71.5t-71.5 -28.5q-45 0 -73.5 28.5t-28.5 71.5zM743 1323q0 45 30 73.5t73 28.5t71.5 -28.5t28.5 -73.5q0 -43 -28.5 -71.5t-71.5 -28.5t-73 28.5t-30 71.5z" />
<glyph unicode="&#xf7;" horiz-adv-x="1226" d="M143 594v149h942v-149h-942zM494 250q0 51 34.5 86t86 35t85 -35t33.5 -86t-33.5 -85t-85 -34t-86 34t-34.5 85zM494 1091.5q0 51.5 34.5 85t86 33.5t85 -33.5t33.5 -85t-33.5 -86t-85 -34.5t-86 34.5t-34.5 86z" />
<glyph unicode="&#xf8;" d="M98 496q0 215 151.5 368.5t387.5 153.5q162 0 297 -82l47 57h147l-106 -127q154 -150 154 -370q0 -217 -151 -369t-388 -152q-174 0 -299 80l-47 -55h-146l105 127q-152 152 -152 369zM264 496q0 -143 88 -248l482 569q-86 55 -197 55q-160 0 -266.5 -108t-106.5 -268z M438 174q82 -53 199 -53q160 0 266.5 107.5t106.5 267.5q0 150 -90 249z" />
<glyph unicode="&#xf9;" horiz-adv-x="1253" d="M152 389v604h163v-569q0 -88 25 -150.5t69 -92t86 -41t91 -11.5q96 0 191 59.5t141 139.5v665h163v-993h-163v150q-145 -174 -390 -175q-184 0 -280 110t-96 304zM355 1458h203l196 -276h-153z" />
<glyph unicode="&#xfa;" horiz-adv-x="1253" d="M152 389v604h163v-569q0 -88 25 -150.5t69 -92t86 -41t91 -11.5q96 0 191 59.5t141 139.5v665h163v-993h-163v150q-145 -174 -390 -175q-184 0 -280 110t-96 304zM489 1182l197 276h205l-248 -276h-154z" />
<glyph unicode="&#xfb;" horiz-adv-x="1253" d="M152 389v604h163v-569q0 -88 25 -150.5t69 -92t86 -41t91 -11.5q96 0 191 59.5t141 139.5v665h163v-993h-163v150q-145 -174 -390 -175q-184 0 -280 110t-96 304zM308 1182l229 276h166l227 -276h-158l-153 184l-154 -184h-157z" />
<glyph unicode="&#xfc;" horiz-adv-x="1253" d="M152 389v604h163v-569q0 -88 25 -150.5t69 -92t86 -41t91 -11.5q96 0 191 59.5t141 139.5v665h163v-993h-163v150q-145 -174 -390 -175q-184 0 -280 110t-96 304zM312 1323q0 45 28.5 73.5t73.5 28.5q43 0 71.5 -28.5t28.5 -73.5q0 -43 -28.5 -71.5t-71.5 -28.5 q-45 0 -73.5 28.5t-28.5 71.5zM723 1323q0 45 30 73.5t73 28.5t71.5 -28.5t28.5 -73.5q0 -43 -28.5 -71.5t-71.5 -28.5t-73 28.5t-30 71.5z" />
<glyph unicode="&#xfd;" horiz-adv-x="1142" d="M55 993h181l342 -766l329 766h176l-487 -1104q-135 -307 -360 -307q-117 0 -162 29v149q59 -33 137 -32q92 0 154.5 73.5t130.5 235.5zM462 1182l197 276h205l-248 -276h-154z" />
<glyph unicode="&#xfe;" horiz-adv-x="1302" d="M170 -410v1844h164v-594q137 178 377 178q217 0 356 -152.5t139 -367.5q0 -217 -139 -370t-356 -153q-244 0 -377 179v-564h-164zM334 334q43 -94 134 -153.5t204 -59.5q160 0 264 108.5t104 268t-104.5 267t-263.5 107.5q-111 0 -204 -61.5t-134 -153.5v-323z" />
<glyph unicode="&#xff;" horiz-adv-x="1142" d="M55 993h181l342 -766l329 766h176l-487 -1104q-135 -307 -360 -307q-117 0 -162 29v149q59 -33 137 -32q92 0 154.5 73.5t130.5 235.5zM259 1323q0 45 28.5 73.5t73.5 28.5q43 0 71.5 -28.5t28.5 -73.5q0 -43 -28.5 -71.5t-71.5 -28.5q-45 0 -73.5 28.5t-28.5 71.5z M670 1323q0 45 30 73.5t73 28.5t71.5 -28.5t28.5 -73.5q0 -43 -28.5 -71.5t-71.5 -28.5t-73 28.5t-30 71.5z" />
<glyph unicode="&#x152;" horiz-adv-x="2297" d="M139 716.5q0 319.5 216 518.5t565 199h1257v-152h-817v-438h668v-152h-668v-540h846v-152h-1286q-348 0 -564.5 198.5t-216.5 518zM311 717q0 -262 165 -413.5t462 -151.5h258v1130h-258q-297 0 -462 -151.5t-165 -413.5z" />
<glyph unicode="&#x153;" horiz-adv-x="2074" d="M98 496q0 215 152.5 368.5t386.5 153.5q150 0 265.5 -65.5t182.5 -176.5q59 111 169 176.5t255 65.5q156 0 265.5 -84t154.5 -197.5t45 -236.5v-45h-805q14 -154 126 -244t288 -90q180 0 318 92v-143q-123 -94 -351 -95q-150 0 -272.5 64.5t-190.5 175.5 q-63 -111 -182 -175.5t-268 -64.5q-236 0 -387.5 153t-151.5 368zM264 495.5q0 -159.5 106.5 -267t266.5 -107.5t267.5 107.5t107.5 267t-107.5 268t-267.5 108.5t-266.5 -108.5t-106.5 -268zM1171 586h639q-6 109 -82.5 197.5t-226.5 88.5q-143 0 -232.5 -84.5 t-97.5 -201.5z" />
<glyph unicode="&#x178;" horiz-adv-x="1368" d="M45 1434h193l448 -625l449 625h188l-555 -775v-659h-168v655zM383 1698q0 43 28.5 71.5t71.5 28.5q45 0 73.5 -28.5t28.5 -71.5q0 -45 -28.5 -74t-73.5 -29q-43 0 -71.5 29t-28.5 74zM794 1698q0 43 30 71.5t73 28.5t71.5 -28.5t28.5 -71.5q0 -45 -28.5 -74t-71.5 -29 t-73 29t-30 74z" />
<glyph unicode="&#x2c6;" horiz-adv-x="1091" d="M236 1182l229 276h166l227 -276h-158l-153 184l-154 -184h-157z" />
<glyph unicode="&#x2dc;" horiz-adv-x="1060" d="M201 1210q4 102 53 168t131 66q57 0 150.5 -56.5t130.5 -56.5q41 0 57 26.5t27 78.5h106q-2 -102 -51 -167t-133 -65q-57 0 -150.5 55.5t-130.5 55.5q-72 0 -84 -105h-106z" />
<glyph unicode="&#x2000;" horiz-adv-x="949" />
<glyph unicode="&#x2001;" horiz-adv-x="1898" />
<glyph unicode="&#x2002;" horiz-adv-x="949" />
<glyph unicode="&#x2003;" horiz-adv-x="1898" />
<glyph unicode="&#x2004;" horiz-adv-x="632" />
<glyph unicode="&#x2005;" horiz-adv-x="474" />
<glyph unicode="&#x2006;" horiz-adv-x="316" />
<glyph unicode="&#x2007;" horiz-adv-x="316" />
<glyph unicode="&#x2008;" horiz-adv-x="237" />
<glyph unicode="&#x2009;" horiz-adv-x="379" />
<glyph unicode="&#x200a;" horiz-adv-x="105" />
<glyph unicode="&#x2010;" horiz-adv-x="989" d="M205 483v150h579v-150h-579z" />
<glyph unicode="&#x2011;" horiz-adv-x="989" d="M205 483v150h579v-150h-579z" />
<glyph unicode="&#x2012;" horiz-adv-x="989" d="M205 483v150h579v-150h-579z" />
<glyph unicode="&#x2013;" horiz-adv-x="1503" d="M205 483v150h1095v-150h-1095z" />
<glyph unicode="&#x2014;" horiz-adv-x="1857" d="M205 483v150h1450v-150h-1450z" />
<glyph unicode="&#x2018;" horiz-adv-x="450" d="M39 901l223 533h129l-164 -533h-188z" />
<glyph unicode="&#x2019;" horiz-adv-x="450" d="M55 901l164 533h189l-224 -533h-129z" />
<glyph unicode="&#x201a;" horiz-adv-x="491" d="M28 -311l164 533h189l-224 -533h-129z" />
<glyph unicode="&#x201c;" horiz-adv-x="774" d="M39 901l223 533h129l-164 -533h-188zM363 901l223 533h129l-164 -533h-188z" />
<glyph unicode="&#x201d;" horiz-adv-x="776" d="M56 901l164 532h188l-223 -532h-129zM381 901l164 532h189l-224 -532h-129z" />
<glyph unicode="&#x201e;" horiz-adv-x="817" d="M29 -311l164 532h188l-223 -532h-129zM354 -311l164 532h189l-224 -532h-129z" />
<glyph unicode="&#x2022;" horiz-adv-x="839" d="M184 784.5q0 96.5 70 166t166 69.5q100 0 169.5 -69.5t69.5 -166t-70.5 -166t-168.5 -69.5q-96 0 -166 69.5t-70 166z" />
<glyph unicode="&#x2026;" horiz-adv-x="1380" d="M131 100q0 47 33 81t82 34q47 0 79.5 -34t32.5 -81t-32.5 -79.5t-79.5 -32.5q-49 0 -82 32.5t-33 79.5zM578 100q0 47 33.5 81t80.5 34t80 -34t33 -81t-33 -79.5t-80 -32.5t-80.5 32.5t-33.5 79.5zM1022 100q0 47 32.5 81t80 34t81 -34t33.5 -81t-33.5 -79.5t-81 -32.5 t-80 32.5t-32.5 79.5z" />
<glyph unicode="&#x202f;" horiz-adv-x="379" />
<glyph unicode="&#x2039;" horiz-adv-x="655" d="M92 455v84l305 372h168l-336 -415l336 -414h-168z" />
<glyph unicode="&#x203a;" horiz-adv-x="655" d="M88 82l334 414l-334 415h170l305 -372v-84l-305 -373h-170z" />
<glyph unicode="&#x205f;" horiz-adv-x="474" />
<glyph unicode="&#x20ac;" horiz-adv-x="1400" d="M86 514v135h164q-4 35 -4 88q0 41 6 99h-166v135h193q61 219 226 353t408 134q207 0 353 -98v-162q-154 106 -336 107q-174 0 -297 -89.5t-176 -244.5h499v-135h-532q-8 -51 -8 -101q0 -55 4 -86h536v-135h-514q41 -178 167 -281.5t321 -103.5q223 0 368 133v-170 q-156 -117 -385 -117q-256 0 -427 147.5t-218 391.5h-182z" />
<glyph unicode="&#x2122;" horiz-adv-x="1413" d="M47 1341v93h520v-93h-211v-540h-104v540h-205zM680 801v633h98l209 -273l207 273h100v-633h-106v469l-172 -221h-55l-177 221v-469h-104z" />
<glyph unicode="&#x25fc;" horiz-adv-x="993" d="M0 0v993h993v-993h-993z" />
</font>
</defs>
</svg>
